<svg width="24" height="18" viewBox="0 0 24 18" fill="none" xmlns="http://www.w3.org/2000/svg">
<path fill-rule="evenodd" clip-rule="evenodd" d="M2.02498 14.7V1.875H21.975V14.7H2.02498ZM21.975 0.449997H2.02498C1.64704 0.449997 1.28459 0.60013 1.01735 0.86737C0.750109 1.13461 0.599976 1.49706 0.599976 1.875V16.125C0.599976 16.5029 0.750109 16.8654 1.01735 17.1326C1.28459 17.3999 1.64704 17.55 2.02498 17.55H21.975C22.3529 17.55 22.7154 17.3999 22.9826 17.1326C23.2498 16.8654 23.4 16.5029 23.4 16.125V1.875C23.4 1.49706 23.2498 1.13461 22.9826 0.86737C22.7154 0.60013 22.3529 0.449997 21.975 0.449997ZM20.55 9H14.85V13.275H20.55V9Z" fill="#B3B3B3"/>
</svg>
