<svg width="22" height="24" viewBox="0 0 22 24" fill="none" xmlns="http://www.w3.org/2000/svg">
<path fill-rule="evenodd" clip-rule="evenodd" d="M16.5805 16.916L21.4833 22.6692L20.6329 23.4L15.7168 17.6468C14.0249 18.9312 12.1205 19.5734 10.0035 19.5734C8.71907 19.5734 7.49005 19.3231 6.31642 18.8227C5.14279 18.3222 4.133 17.649 3.28704 16.8031C2.44109 15.9572 1.7679 14.9474 1.26747 13.7737C0.767049 12.6001 0.51682 11.3711 0.516785 10.0867C0.51675 8.80232 0.766979 7.57331 1.26747 6.39964C1.76797 5.22598 2.44116 4.21618 3.28704 3.37026C4.13293 2.52434 5.14272 1.85115 6.31642 1.35069C7.49012 0.850235 8.71914 0.600006 10.0035 0.600006C11.2878 0.600006 12.5168 0.850235 13.6905 1.35069C14.8642 1.85115 15.874 2.52434 16.7199 3.37026C17.5658 4.21618 18.239 5.22598 18.7395 6.39964C19.24 7.57331 19.4902 8.80232 19.4902 10.0867C19.4902 11.4065 19.2333 12.6554 18.7195 13.8335C18.2058 15.0116 17.4927 16.0391 16.5804 16.9161L16.5805 16.916ZM10.0036 18.4573C11.5182 18.4573 12.9178 18.083 14.2022 17.3345C15.4866 16.586 16.503 15.5696 17.2515 14.2852C18 13.0008 18.3742 11.6013 18.3742 10.0866C18.3743 8.57189 18 7.17236 17.2515 5.88799C16.5029 4.60362 15.4865 3.5872 14.2022 2.83873C12.9178 2.09026 11.5183 1.71602 10.0036 1.71602C8.48884 1.71602 7.08931 2.09026 5.80498 2.83873C4.52064 3.5872 3.50422 4.60362 2.75572 5.88799C2.00721 7.17236 1.63297 8.57189 1.63301 10.0866C1.63304 11.6013 2.00728 13.0008 2.75572 14.2852C3.50415 15.5696 4.52057 16.586 5.80498 17.3345C7.08938 18.083 8.48891 18.4573 10.0036 18.4573Z" fill="#B3B3B3"/>
</svg>
